<?xml version="1.0" encoding="UTF-8" standalone="no"?>
<!DOCTYPE svg PUBLIC "-//W3C//DTD SVG 1.1//EN"
 "http://www.w3.org/Graphics/SVG/1.1/DTD/svg11.dtd">
<!-- Generated by graphviz version 2.38.0 (20140413.2041)
 -->
<!-- Title: controllers_diagram Pages: 1 -->
<svg width="742pt" height="819pt"
 viewBox="0.00 0.00 742.31 819.00" xmlns="http://www.w3.org/2000/svg" xmlns:xlink="http://www.w3.org/1999/xlink">
<g id="graph0" class="graph" transform="scale(1 1) rotate(0) translate(256.486 473.5)">
<title>controllers_diagram</title>
<polygon fill="white" stroke="none" points="-256.486,345.5 -256.486,-473.5 485.821,-473.5 485.821,345.5 -256.486,345.5"/>
<!-- _diagram_info -->
<g id="node1" class="node"><title>_diagram_info</title>
<text text-anchor="start" x="-225.688" y="174.9" font-family="Times,serif" font-size="13.00">Controllers diagram</text>
<text text-anchor="start" x="-225.688" y="187.9" font-family="Times,serif" font-size="13.00">Date: Dec 09 2014 &#45; 01:26</text>
<text text-anchor="start" x="-225.688" y="200.9" font-family="Times,serif" font-size="13.00">Migration version: 20141209061841</text>
<text text-anchor="start" x="-225.688" y="213.9" font-family="Times,serif" font-size="13.00">Generated by RailRoady 1.2.0</text>
<text text-anchor="start" x="-225.688" y="226.9" font-family="Times,serif" font-size="13.00">http://railroady.prestonlee.com</text>
</g>
<!-- Api::V1::ApplicationController -->
<g id="node2" class="node"><title>Api::V1::ApplicationController</title>
<path fill="none" stroke="black" d="M-95.7451,-163C-95.7451,-163 79.7451,-163 79.7451,-163 85.7451,-163 91.7451,-169 91.7451,-175 91.7451,-175 91.7451,-297 91.7451,-297 91.7451,-303 85.7451,-309 79.7451,-309 79.7451,-309 -95.7451,-309 -95.7451,-309 -101.745,-309 -107.745,-303 -107.745,-297 -107.745,-297 -107.745,-175 -107.745,-175 -107.745,-169 -101.745,-163 -95.7451,-163"/>
<text text-anchor="middle" x="-8" y="-293.8" font-family="Times,serif" font-size="14.00">Api::V1::ApplicationController</text>
<polyline fill="none" stroke="black" points="-107.745,-287 91.7451,-287 "/>
<text text-anchor="start" x="-99.7451" y="-271.8" font-family="Times,serif" font-size="14.00">authenticate_user_from_token</text>
<text text-anchor="start" x="-99.7451" y="-257.8" font-family="Times,serif" font-size="14.00">authenticate_user_from_token!</text>
<polyline fill="none" stroke="black" points="-107.745,-251 91.7451,-251 "/>
<polyline fill="none" stroke="black" points="-107.745,-227 91.7451,-227 "/>
<text text-anchor="start" x="-99.7451" y="-211.8" font-family="Times,serif" font-size="14.00">_layout</text>
<text text-anchor="start" x="-99.7451" y="-197.8" font-family="Times,serif" font-size="14.00">authenticate_entity_from_token!</text>
<text text-anchor="start" x="-99.7451" y="-183.8" font-family="Times,serif" font-size="14.00">header_email_name</text>
<text text-anchor="start" x="-99.7451" y="-169.8" font-family="Times,serif" font-size="14.00">header_token_name</text>
</g>
<!-- Api::V1::CouponsController -->
<g id="node3" class="node"><title>Api::V1::CouponsController</title>
<path fill="none" stroke="black" d="M300.5,107C300.5,107 453.5,107 453.5,107 459.5,107 465.5,101 465.5,95 465.5,95 465.5,15 465.5,15 465.5,9 459.5,3 453.5,3 453.5,3 300.5,3 300.5,3 294.5,3 288.5,9 288.5,15 288.5,15 288.5,95 288.5,95 288.5,101 294.5,107 300.5,107"/>
<text text-anchor="middle" x="377" y="18.2" font-family="Times,serif" font-size="14.00">Api::V1::CouponsController</text>
<polyline fill="none" stroke="black" points="288.5,25 465.5,25 "/>
<text text-anchor="start" x="296.5" y="40.2" font-family="Times,serif" font-size="14.00">claim_coupon</text>
<text text-anchor="start" x="296.5" y="54.2" font-family="Times,serif" font-size="14.00">index</text>
<polyline fill="none" stroke="black" points="288.5,61 465.5,61 "/>
<polyline fill="none" stroke="black" points="288.5,85 465.5,85 "/>
<text text-anchor="start" x="296.5" y="100.2" font-family="Times,serif" font-size="14.00">_layout</text>
</g>
<!-- Api::V1::RegistrationsController -->
<g id="node4" class="node"><title>Api::V1::RegistrationsController</title>
<path fill="none" stroke="black" d="M120.452,251C120.452,251 297.548,251 297.548,251 303.548,251 309.548,245 309.548,239 309.548,239 309.548,159 309.548,159 309.548,153 303.548,147 297.548,147 297.548,147 120.452,147 120.452,147 114.452,147 108.452,153 108.452,159 108.452,159 108.452,239 108.452,239 108.452,245 114.452,251 120.452,251"/>
<text text-anchor="middle" x="209" y="162.2" font-family="Times,serif" font-size="14.00">Api::V1::RegistrationsController</text>
<polyline fill="none" stroke="black" points="108.452,169 309.548,169 "/>
<text text-anchor="start" x="116.452" y="184.2" font-family="Times,serif" font-size="14.00">create</text>
<polyline fill="none" stroke="black" points="108.452,191 309.548,191 "/>
<polyline fill="none" stroke="black" points="108.452,215 309.548,215 "/>
<text text-anchor="start" x="116.452" y="230.2" font-family="Times,serif" font-size="14.00">_layout</text>
<text text-anchor="start" x="116.452" y="244.2" font-family="Times,serif" font-size="14.00">user_params</text>
</g>
<!-- Api::V1::SessionsController -->
<g id="node5" class="node"><title>Api::V1::SessionsController</title>
<path fill="none" stroke="black" d="M300.276,-37C300.276,-37 451.724,-37 451.724,-37 457.724,-37 463.724,-43 463.724,-49 463.724,-49 463.724,-129 463.724,-129 463.724,-135 457.724,-141 451.724,-141 451.724,-141 300.276,-141 300.276,-141 294.276,-141 288.276,-135 288.276,-129 288.276,-129 288.276,-49 288.276,-49 288.276,-43 294.276,-37 300.276,-37"/>
<text text-anchor="middle" x="376" y="-125.8" font-family="Times,serif" font-size="14.00">Api::V1::SessionsController</text>
<polyline fill="none" stroke="black" points="288.276,-119 463.724,-119 "/>
<text text-anchor="start" x="296.276" y="-103.8" font-family="Times,serif" font-size="14.00">create</text>
<text text-anchor="start" x="296.276" y="-89.8" font-family="Times,serif" font-size="14.00">destroy</text>
<polyline fill="none" stroke="black" points="288.276,-83 463.724,-83 "/>
<polyline fill="none" stroke="black" points="288.276,-59 463.724,-59 "/>
<text text-anchor="start" x="296.276" y="-43.8" font-family="Times,serif" font-size="14.00">_layout</text>
</g>
<!-- ApplicationController -->
<g id="node6" class="node"><title>ApplicationController</title>
<path fill="none" stroke="black" d="M354.179,341C354.179,341 469.821,341 469.821,341 475.821,341 481.821,335 481.821,329 481.821,329 481.821,261 481.821,261 481.821,255 475.821,249 469.821,249 469.821,249 354.179,249 354.179,249 348.179,249 342.179,255 342.179,261 342.179,261 342.179,329 342.179,329 342.179,335 348.179,341 354.179,341"/>
<text text-anchor="middle" x="412" y="264.2" font-family="Times,serif" font-size="14.00">ApplicationController</text>
<polyline fill="none" stroke="black" points="342.179,271 481.821,271 "/>
<polyline fill="none" stroke="black" points="342.179,295 481.821,295 "/>
<polyline fill="none" stroke="black" points="342.179,319 481.821,319 "/>
<text text-anchor="start" x="350.179" y="334.2" font-family="Times,serif" font-size="14.00">_layout</text>
</g>
<!-- BeaconsController -->
<g id="node7" class="node"><title>BeaconsController</title>
<path fill="none" stroke="black" d="M-240.486,89C-240.486,89 -143.514,89 -143.514,89 -137.514,89 -131.514,83 -131.514,77 -131.514,77 -131.514,-115 -131.514,-115 -131.514,-121 -137.514,-127 -143.514,-127 -143.514,-127 -240.486,-127 -240.486,-127 -246.486,-127 -252.486,-121 -252.486,-115 -252.486,-115 -252.486,77 -252.486,77 -252.486,83 -246.486,89 -240.486,89"/>
<text text-anchor="middle" x="-192" y="-111.8" font-family="Times,serif" font-size="14.00">BeaconsController</text>
<polyline fill="none" stroke="black" points="-252.486,-105 -131.514,-105 "/>
<text text-anchor="start" x="-244.486" y="-89.8" font-family="Times,serif" font-size="14.00">create</text>
<text text-anchor="start" x="-244.486" y="-75.8" font-family="Times,serif" font-size="14.00">destroy</text>
<text text-anchor="start" x="-244.486" y="-61.8" font-family="Times,serif" font-size="14.00">edit</text>
<text text-anchor="start" x="-244.486" y="-47.8" font-family="Times,serif" font-size="14.00">index</text>
<text text-anchor="start" x="-244.486" y="-33.8" font-family="Times,serif" font-size="14.00">new</text>
<text text-anchor="start" x="-244.486" y="-19.8" font-family="Times,serif" font-size="14.00">show</text>
<text text-anchor="start" x="-244.486" y="-5.8" font-family="Times,serif" font-size="14.00">update</text>
<polyline fill="none" stroke="black" points="-252.486,1 -131.514,1 "/>
<polyline fill="none" stroke="black" points="-252.486,25 -131.514,25 "/>
<text text-anchor="start" x="-244.486" y="40.2" font-family="Times,serif" font-size="14.00">_layout</text>
<text text-anchor="start" x="-244.486" y="54.2" font-family="Times,serif" font-size="14.00">beacon_params</text>
<text text-anchor="start" x="-244.486" y="68.2" font-family="Times,serif" font-size="14.00">set_beacon</text>
<text text-anchor="start" x="-244.486" y="82.2" font-family="Times,serif" font-size="14.00">set_local</text>
</g>
<!-- CouponsController -->
<g id="node8" class="node"><title>CouponsController</title>
<path fill="none" stroke="black" d="M138.334,-127C138.334,-127 237.666,-127 237.666,-127 243.666,-127 249.666,-133 249.666,-139 249.666,-139 249.666,-345 249.666,-345 249.666,-351 243.666,-357 237.666,-357 237.666,-357 138.334,-357 138.334,-357 132.334,-357 126.334,-351 126.334,-345 126.334,-345 126.334,-139 126.334,-139 126.334,-133 132.334,-127 138.334,-127"/>
<text text-anchor="middle" x="188" y="-341.8" font-family="Times,serif" font-size="14.00">CouponsController</text>
<polyline fill="none" stroke="black" points="126.334,-335 249.666,-335 "/>
<text text-anchor="start" x="134.334" y="-319.8" font-family="Times,serif" font-size="14.00">create</text>
<text text-anchor="start" x="134.334" y="-305.8" font-family="Times,serif" font-size="14.00">destroy</text>
<text text-anchor="start" x="134.334" y="-291.8" font-family="Times,serif" font-size="14.00">edit</text>
<text text-anchor="start" x="134.334" y="-277.8" font-family="Times,serif" font-size="14.00">index</text>
<text text-anchor="start" x="134.334" y="-263.8" font-family="Times,serif" font-size="14.00">new</text>
<text text-anchor="start" x="134.334" y="-249.8" font-family="Times,serif" font-size="14.00">show</text>
<text text-anchor="start" x="134.334" y="-235.8" font-family="Times,serif" font-size="14.00">update</text>
<polyline fill="none" stroke="black" points="126.334,-229 249.666,-229 "/>
<polyline fill="none" stroke="black" points="126.334,-205 249.666,-205 "/>
<text text-anchor="start" x="134.334" y="-189.8" font-family="Times,serif" font-size="14.00">_layout</text>
<text text-anchor="start" x="134.334" y="-175.8" font-family="Times,serif" font-size="14.00">coupon_params</text>
<text text-anchor="start" x="134.334" y="-161.8" font-family="Times,serif" font-size="14.00">set_coupon</text>
<text text-anchor="start" x="134.334" y="-147.8" font-family="Times,serif" font-size="14.00">set_local</text>
<text text-anchor="start" x="134.334" y="-133.8" font-family="Times,serif" font-size="14.00">set_store</text>
</g>
<!-- LocalsController -->
<g id="node9" class="node"><title>LocalsController</title>
<path fill="none" stroke="black" d="M-78.3623,125C-78.3623,125 54.3623,125 54.3623,125 60.3623,125 66.3623,119 66.3623,113 66.3623,113 66.3623,-107 66.3623,-107 66.3623,-113 60.3623,-119 54.3623,-119 54.3623,-119 -78.3623,-119 -78.3623,-119 -84.3623,-119 -90.3623,-113 -90.3623,-107 -90.3623,-107 -90.3623,113 -90.3623,113 -90.3623,119 -84.3623,125 -78.3623,125"/>
<text text-anchor="middle" x="-12" y="-103.8" font-family="Times,serif" font-size="14.00">LocalsController</text>
<polyline fill="none" stroke="black" points="-90.3623,-97 66.3623,-97 "/>
<text text-anchor="start" x="-82.3623" y="-81.8" font-family="Times,serif" font-size="14.00">add_user_to_local</text>
<text text-anchor="start" x="-82.3623" y="-67.8" font-family="Times,serif" font-size="14.00">create</text>
<text text-anchor="start" x="-82.3623" y="-53.8" font-family="Times,serif" font-size="14.00">destroy</text>
<text text-anchor="start" x="-82.3623" y="-39.8" font-family="Times,serif" font-size="14.00">edit</text>
<text text-anchor="start" x="-82.3623" y="-25.8" font-family="Times,serif" font-size="14.00">index</text>
<text text-anchor="start" x="-82.3623" y="-11.8" font-family="Times,serif" font-size="14.00">is_worker?</text>
<text text-anchor="start" x="-82.3623" y="2.2" font-family="Times,serif" font-size="14.00">new</text>
<text text-anchor="start" x="-82.3623" y="16.2" font-family="Times,serif" font-size="14.00">remove_user_from_local</text>
<text text-anchor="start" x="-82.3623" y="30.2" font-family="Times,serif" font-size="14.00">show</text>
<text text-anchor="start" x="-82.3623" y="44.2" font-family="Times,serif" font-size="14.00">update</text>
<polyline fill="none" stroke="black" points="-90.3623,51 66.3623,51 "/>
<polyline fill="none" stroke="black" points="-90.3623,75 66.3623,75 "/>
<text text-anchor="start" x="-82.3623" y="90.2" font-family="Times,serif" font-size="14.00">_layout</text>
<text text-anchor="start" x="-82.3623" y="104.2" font-family="Times,serif" font-size="14.00">local_params</text>
<text text-anchor="start" x="-82.3623" y="118.2" font-family="Times,serif" font-size="14.00">set_local</text>
</g>
<!-- NotificationsController -->
<g id="node10" class="node"><title>NotificationsController</title>
<path fill="none" stroke="black" d="M120.062,107C120.062,107 241.938,107 241.938,107 247.938,107 253.938,101 253.938,95 253.938,95 253.938,-83 253.938,-83 253.938,-89 247.938,-95 241.938,-95 241.938,-95 120.062,-95 120.062,-95 114.062,-95 108.062,-89 108.062,-83 108.062,-83 108.062,95 108.062,95 108.062,101 114.062,107 120.062,107"/>
<text text-anchor="middle" x="181" y="-79.8" font-family="Times,serif" font-size="14.00">NotificationsController</text>
<polyline fill="none" stroke="black" points="108.062,-73 253.938,-73 "/>
<text text-anchor="start" x="116.062" y="-57.8" font-family="Times,serif" font-size="14.00">create</text>
<text text-anchor="start" x="116.062" y="-43.8" font-family="Times,serif" font-size="14.00">destroy</text>
<text text-anchor="start" x="116.062" y="-29.8" font-family="Times,serif" font-size="14.00">edit</text>
<text text-anchor="start" x="116.062" y="-15.8" font-family="Times,serif" font-size="14.00">index</text>
<text text-anchor="start" x="116.062" y="-1.8" font-family="Times,serif" font-size="14.00">new</text>
<text text-anchor="start" x="116.062" y="12.2" font-family="Times,serif" font-size="14.00">show</text>
<text text-anchor="start" x="116.062" y="26.2" font-family="Times,serif" font-size="14.00">update</text>
<polyline fill="none" stroke="black" points="108.062,33 253.938,33 "/>
<polyline fill="none" stroke="black" points="108.062,57 253.938,57 "/>
<text text-anchor="start" x="116.062" y="72.2" font-family="Times,serif" font-size="14.00">_layout</text>
<text text-anchor="start" x="116.062" y="86.2" font-family="Times,serif" font-size="14.00">notification_params</text>
<text text-anchor="start" x="116.062" y="100.2" font-family="Times,serif" font-size="14.00">set_notification</text>
</g>
<!-- RegistrationsController -->
<g id="node11" class="node"><title>RegistrationsController</title>
<path fill="none" stroke="black" d="M300.362,-181C300.362,-181 427.638,-181 427.638,-181 433.638,-181 439.638,-187 439.638,-193 439.638,-193 439.638,-289 439.638,-289 439.638,-295 433.638,-301 427.638,-301 427.638,-301 300.362,-301 300.362,-301 294.362,-301 288.362,-295 288.362,-289 288.362,-289 288.362,-193 288.362,-193 288.362,-187 294.362,-181 300.362,-181"/>
<text text-anchor="middle" x="364" y="-285.8" font-family="Times,serif" font-size="14.00">RegistrationsController</text>
<polyline fill="none" stroke="black" points="288.362,-279 439.638,-279 "/>
<polyline fill="none" stroke="black" points="288.362,-255 439.638,-255 "/>
<polyline fill="none" stroke="black" points="288.362,-231 439.638,-231 "/>
<text text-anchor="start" x="296.362" y="-215.8" font-family="Times,serif" font-size="14.00">_layout</text>
<text text-anchor="start" x="296.362" y="-201.8" font-family="Times,serif" font-size="14.00">account_update_params</text>
<text text-anchor="start" x="296.362" y="-187.8" font-family="Times,serif" font-size="14.00">sign_up_params</text>
</g>
<!-- StoresController -->
<g id="node12" class="node"><title>StoresController</title>
<path fill="none" stroke="black" d="M-240.272,-253C-240.272,-253 -155.728,-253 -155.728,-253 -149.728,-253 -143.728,-259 -143.728,-265 -143.728,-265 -143.728,-457 -143.728,-457 -143.728,-463 -149.728,-469 -155.728,-469 -155.728,-469 -240.272,-469 -240.272,-469 -246.272,-469 -252.272,-463 -252.272,-457 -252.272,-457 -252.272,-265 -252.272,-265 -252.272,-259 -246.272,-253 -240.272,-253"/>
<text text-anchor="middle" x="-198" y="-453.8" font-family="Times,serif" font-size="14.00">StoresController</text>
<polyline fill="none" stroke="black" points="-252.272,-447 -143.728,-447 "/>
<text text-anchor="start" x="-244.272" y="-431.8" font-family="Times,serif" font-size="14.00">create</text>
<text text-anchor="start" x="-244.272" y="-417.8" font-family="Times,serif" font-size="14.00">destroy</text>
<text text-anchor="start" x="-244.272" y="-403.8" font-family="Times,serif" font-size="14.00">edit</text>
<text text-anchor="start" x="-244.272" y="-389.8" font-family="Times,serif" font-size="14.00">index</text>
<text text-anchor="start" x="-244.272" y="-375.8" font-family="Times,serif" font-size="14.00">new</text>
<text text-anchor="start" x="-244.272" y="-361.8" font-family="Times,serif" font-size="14.00">show</text>
<text text-anchor="start" x="-244.272" y="-347.8" font-family="Times,serif" font-size="14.00">update</text>
<polyline fill="none" stroke="black" points="-252.272,-341 -143.728,-341 "/>
<polyline fill="none" stroke="black" points="-252.272,-317 -143.728,-317 "/>
<text text-anchor="start" x="-244.272" y="-301.8" font-family="Times,serif" font-size="14.00">_layout</text>
<text text-anchor="start" x="-244.272" y="-287.8" font-family="Times,serif" font-size="14.00">set_local</text>
<text text-anchor="start" x="-244.272" y="-273.8" font-family="Times,serif" font-size="14.00">set_store</text>
<text text-anchor="start" x="-244.272" y="-259.8" font-family="Times,serif" font-size="14.00">store_params</text>
</g>
<!-- UsersController -->
<g id="node13" class="node"><title>UsersController</title>
<path fill="none" stroke="black" d="M354.286,-343C354.286,-343 435.714,-343 435.714,-343 441.714,-343 447.714,-349 447.714,-355 447.714,-355 447.714,-435 447.714,-435 447.714,-441 441.714,-447 435.714,-447 435.714,-447 354.286,-447 354.286,-447 348.286,-447 342.286,-441 342.286,-435 342.286,-435 342.286,-355 342.286,-355 342.286,-349 348.286,-343 354.286,-343"/>
<text text-anchor="middle" x="395" y="-431.8" font-family="Times,serif" font-size="14.00">UsersController</text>
<polyline fill="none" stroke="black" points="342.286,-425 447.714,-425 "/>
<text text-anchor="start" x="350.286" y="-409.8" font-family="Times,serif" font-size="14.00">index</text>
<polyline fill="none" stroke="black" points="342.286,-403 447.714,-403 "/>
<polyline fill="none" stroke="black" points="342.286,-379 447.714,-379 "/>
<text text-anchor="start" x="350.286" y="-363.8" font-family="Times,serif" font-size="14.00">_layout</text>
<text text-anchor="start" x="350.286" y="-349.8" font-family="Times,serif" font-size="14.00">set_local</text>
</g>
</g>
</svg>
