<?xml version="1.0" encoding="UTF-8" standalone="no"?>
<!DOCTYPE svg PUBLIC "-//W3C//DTD SVG 1.1//EN"
 "http://www.w3.org/Graphics/SVG/1.1/DTD/svg11.dtd">
<!-- Generated by graphviz version 2.38.0 (20140413.2041)
 -->
<!-- Title: models_diagram Pages: 1 -->
<svg width="462pt" height="369pt"
 viewBox="0.00 0.00 461.78 369.00" xmlns="http://www.w3.org/2000/svg" xmlns:xlink="http://www.w3.org/1999/xlink">
<g id="graph0" class="graph" transform="scale(1 1) rotate(0) translate(4 365)">
<title>models_diagram</title>
<polygon fill="white" stroke="none" points="-4,4 -4,-365 457.777,-365 457.777,4 -4,4"/>
<!-- _diagram_info -->
<g id="node1" class="node"><title>_diagram_info</title>
<text text-anchor="start" x="8" y="-346.6" font-family="Times,serif" font-size="13.00">Models diagram</text>
<text text-anchor="start" x="8" y="-333.6" font-family="Times,serif" font-size="13.00">Date: Dec 09 2014 &#45; 01:26</text>
<text text-anchor="start" x="8" y="-320.6" font-family="Times,serif" font-size="13.00">Migration version: 20141209061841</text>
<text text-anchor="start" x="8" y="-307.6" font-family="Times,serif" font-size="13.00">Generated by RailRoady 1.2.0</text>
<text text-anchor="start" x="8" y="-294.6" font-family="Times,serif" font-size="13.00">http://railroady.prestonlee.com</text>
</g>
<!-- Beacon -->
<g id="node2" class="node"><title>Beacon</title>
<ellipse fill="none" stroke="black" cx="255.688" cy="-234" rx="36.7489" ry="18"/>
<text text-anchor="middle" x="255.688" y="-229.8" font-family="Times,serif" font-size="14.00">Beacon</text>
</g>
<!-- BeaconCoupon -->
<g id="node3" class="node"><title>BeaconCoupon</title>
<ellipse fill="none" stroke="black" cx="198.688" cy="-90" rx="64.7632" ry="18"/>
<text text-anchor="middle" x="198.688" y="-85.8" font-family="Times,serif" font-size="14.00">BeaconCoupon</text>
</g>
<!-- Beacon&#45;&gt;BeaconCoupon -->
<g id="edge1" class="edge"><title>Beacon&#45;&gt;BeaconCoupon</title>
<path fill="none" stroke="#6eaf85" d="M245.894,-208.6C235.717,-183.247 219.84,-143.695 209.352,-117.567"/>
<ellipse fill="none" stroke="#6eaf85" cx="247.435" cy="-212.441" rx="4.00001" ry="4.00001"/>
<polygon fill="#6eaf85" stroke="#6eaf85" points="209.344,-117.548 209.795,-106.591 207.482,-112.908 205.619,-108.268 205.619,-108.268 205.619,-108.268 207.482,-112.908 201.443,-109.944 209.344,-117.548 209.344,-117.548"/>
</g>
<!-- BeaconNotification -->
<g id="node4" class="node"><title>BeaconNotification</title>
<ellipse fill="none" stroke="black" cx="360.688" cy="-90" rx="78.7453" ry="18"/>
<text text-anchor="middle" x="360.688" y="-85.8" font-family="Times,serif" font-size="14.00">BeaconNotification</text>
</g>
<!-- Beacon&#45;&gt;BeaconNotification -->
<g id="edge3" class="edge"><title>Beacon&#45;&gt;BeaconNotification</title>
<path fill="none" stroke="#7ae8d7" d="M259.428,-207.829C263.248,-188.819 270.684,-162.871 284.688,-144 294.112,-131.3 307.506,-120.538 320.432,-112.099"/>
<ellipse fill="none" stroke="#7ae8d7" cx="258.687" cy="-211.833" rx="4.00001" ry="4.00001"/>
<polygon fill="#7ae8d7" stroke="#7ae8d7" points="320.751,-111.901 331.622,-110.456 325.001,-109.266 329.25,-106.632 329.25,-106.632 329.25,-106.632 325.001,-109.266 326.879,-102.807 320.751,-111.901 320.751,-111.901"/>
</g>
<!-- Coupon -->
<g id="node5" class="node"><title>Coupon</title>
<ellipse fill="none" stroke="black" cx="161.688" cy="-162" rx="38.2284" ry="18"/>
<text text-anchor="middle" x="161.688" y="-157.8" font-family="Times,serif" font-size="14.00">Coupon</text>
</g>
<!-- Beacon&#45;&gt;Coupon -->
<g id="edge2" class="edge"><title>Beacon&#45;&gt;Coupon</title>
<path fill="none" stroke="#3e0e0d" d="M227.79,-212.225C215.589,-203.139 201.317,-192.511 189.164,-183.461"/>
<polygon fill="#3e0e0d" stroke="#3e0e0d" points="228.19,-212.523 233.523,-222.105 232.201,-215.51 236.211,-218.496 236.211,-218.496 236.211,-218.496 232.201,-215.51 238.899,-214.887 228.19,-212.523 228.19,-212.523"/>
<polygon fill="#3e0e0d" stroke="#3e0e0d" points="189.16,-183.458 183.827,-173.876 185.15,-180.472 181.14,-177.485 181.14,-177.485 181.14,-177.485 185.15,-180.472 178.452,-181.095 189.16,-183.458 189.16,-183.458"/>
</g>
<!-- Notification -->
<g id="node7" class="node"><title>Notification</title>
<ellipse fill="none" stroke="black" cx="345.688" cy="-162" rx="52.2106" ry="18"/>
<text text-anchor="middle" x="345.688" y="-157.8" font-family="Times,serif" font-size="14.00">Notification</text>
</g>
<!-- Beacon&#45;&gt;Notification -->
<g id="edge4" class="edge"><title>Beacon&#45;&gt;Notification</title>
<path fill="none" stroke="#e0241e" d="M282.506,-212.142C293.489,-203.599 306.211,-193.704 317.347,-185.043"/>
<polygon fill="#e0241e" stroke="#e0241e" points="282.229,-212.357 271.573,-214.944 278.283,-215.426 274.336,-218.496 274.336,-218.496 274.336,-218.496 278.283,-215.426 277.099,-222.048 282.229,-212.357 282.229,-212.357"/>
<polygon fill="#e0241e" stroke="#e0241e" points="317.605,-184.842 328.261,-182.255 321.552,-181.772 325.499,-178.703 325.499,-178.703 325.499,-178.703 321.552,-181.772 322.736,-175.15 317.605,-184.842 317.605,-184.842"/>
</g>
<!-- Coupon&#45;&gt;BeaconCoupon -->
<g id="edge6" class="edge"><title>Coupon&#45;&gt;BeaconCoupon</title>
<path fill="none" stroke="#312c8a" d="M174.34,-137.062C177.739,-130.632 181.431,-123.647 184.889,-117.106"/>
<ellipse fill="none" stroke="#312c8a" cx="172.325" cy="-140.875" rx="4.00002" ry="4.00002"/>
<polygon fill="#312c8a" stroke="#312c8a" points="185.052,-116.797 193.704,-110.059 187.389,-112.377 189.725,-107.956 189.725,-107.956 189.725,-107.956 187.389,-112.377 185.747,-105.853 185.052,-116.797 185.052,-116.797"/>
</g>
<!-- User -->
<g id="node9" class="node"><title>User</title>
<ellipse fill="none" stroke="black" cx="50.6877" cy="-90" rx="27" ry="18"/>
<text text-anchor="middle" x="50.6877" y="-85.8" font-family="Times,serif" font-size="14.00">User</text>
</g>
<!-- Coupon&#45;&gt;User -->
<g id="edge7" class="edge"><title>Coupon&#45;&gt;User</title>
<path fill="none" stroke="#0722f3" d="M131.133,-141.731C114.677,-131.354 94.5263,-118.646 78.5093,-108.545"/>
<polygon fill="#0722f3" stroke="#0722f3" points="131.299,-141.836 137.357,-150.977 135.528,-144.503 139.758,-147.17 139.758,-147.17 139.758,-147.17 135.528,-144.503 142.158,-143.364 131.299,-141.836 131.299,-141.836"/>
<polygon fill="#0722f3" stroke="#0722f3" points="78.0742,-108.271 72.0161,-99.1302 73.8449,-105.604 69.6157,-102.937 69.6157,-102.937 69.6157,-102.937 73.8449,-105.604 67.2152,-106.743 78.0742,-108.271 78.0742,-108.271"/>
</g>
<!-- UserCoupon -->
<g id="node10" class="node"><title>UserCoupon</title>
<ellipse fill="none" stroke="black" cx="77.6877" cy="-18" rx="54.6248" ry="18"/>
<text text-anchor="middle" x="77.6877" y="-13.8" font-family="Times,serif" font-size="14.00">UserCoupon</text>
</g>
<!-- Coupon&#45;&gt;UserCoupon -->
<g id="edge5" class="edge"><title>Coupon&#45;&gt;UserCoupon</title>
<path fill="none" stroke="#d6c4d6" d="M144.694,-137.983C138.176,-128.822 130.834,-118.078 124.688,-108 112.175,-87.4831 99.5414,-63.3239 90.5286,-45.3574"/>
<ellipse fill="none" stroke="#d6c4d6" cx="147.148" cy="-141.396" rx="4.00002" ry="4.00002"/>
<polygon fill="#d6c4d6" stroke="#d6c4d6" points="90.3667,-45.0315 89.9478,-34.0736 88.1422,-40.5535 85.9177,-36.0756 85.9177,-36.0756 85.9177,-36.0756 88.1422,-40.5535 81.8875,-38.0777 90.3667,-45.0315 90.3667,-45.0315"/>
</g>
<!-- Local -->
<g id="node6" class="node"><title>Local</title>
<ellipse fill="none" stroke="black" cx="255.688" cy="-324.5" rx="30.4775" ry="18"/>
<text text-anchor="middle" x="255.688" y="-320.3" font-family="Times,serif" font-size="14.00">Local</text>
</g>
<!-- Local&#45;&gt;Beacon -->
<g id="edge10" class="edge"><title>Local&#45;&gt;Beacon</title>
<path fill="none" stroke="#1a2b74" d="M255.688,-298.189C255.688,-286.971 255.688,-273.752 255.688,-262.311"/>
<ellipse fill="none" stroke="#1a2b74" cx="255.688" cy="-302.436" rx="4" ry="4"/>
<polygon fill="#1a2b74" stroke="#1a2b74" points="255.688,-262.011 260.188,-252.011 255.688,-257.011 255.688,-252.011 255.688,-252.011 255.688,-252.011 255.688,-257.011 251.188,-252.011 255.688,-262.011 255.688,-262.011"/>
</g>
<!-- Local&#45;&gt;Notification -->
<g id="edge12" class="edge"><title>Local&#45;&gt;Notification</title>
<path fill="none" stroke="#f8484c" d="M271.214,-300.814C280.463,-286.953 292.209,-268.733 301.688,-252 313.372,-231.374 325.201,-207.223 333.647,-189.287"/>
<ellipse fill="none" stroke="#f8484c" cx="268.861" cy="-304.313" rx="4.00002" ry="4.00002"/>
<polygon fill="#f8484c" stroke="#f8484c" points="333.741,-189.087 342.047,-181.927 335.855,-184.556 337.969,-180.024 337.969,-180.024 337.969,-180.024 335.855,-184.556 333.891,-178.122 333.741,-189.087 333.741,-189.087"/>
</g>
<!-- Store -->
<g id="node8" class="node"><title>Store</title>
<ellipse fill="none" stroke="black" cx="166.688" cy="-234" rx="28.5497" ry="18"/>
<text text-anchor="middle" x="166.688" y="-229.8" font-family="Times,serif" font-size="14.00">Store</text>
</g>
<!-- Local&#45;&gt;Store -->
<g id="edge11" class="edge"><title>Local&#45;&gt;Store</title>
<path fill="none" stroke="#625057" d="M234.864,-302.793C221.069,-289.076 202.991,-271.099 188.917,-257.104"/>
<ellipse fill="none" stroke="#625057" cx="237.754" cy="-305.667" rx="4.00002" ry="4.00002"/>
<polygon fill="#625057" stroke="#625057" points="188.653,-256.842 184.735,-246.6 185.108,-253.317 181.562,-249.791 181.562,-249.791 181.562,-249.791 185.108,-253.317 178.389,-252.982 188.653,-256.842 188.653,-256.842"/>
</g>
<!-- Local&#45;&gt;User -->
<g id="edge8" class="edge"><title>Local&#45;&gt;User</title>
<path fill="none" stroke="#afc6c6" d="M234.087,-301.399C228.695,-296.592 222.721,-291.811 216.688,-288 180.961,-265.432 159.492,-280.927 128.688,-252 89.0873,-214.813 67.1887,-153.285 57.2886,-118.037"/>
<polygon fill="#afc6c6" stroke="#afc6c6" points="234.211,-301.515 238.434,-311.635 237.861,-304.932 241.51,-308.35 241.51,-308.35 241.51,-308.35 237.861,-304.932 244.586,-305.066 234.211,-301.515 234.211,-301.515"/>
<polygon fill="#afc6c6" stroke="#afc6c6" points="57.1865,-117.655 58.9414,-106.831 55.8908,-112.826 54.5951,-107.997 54.5951,-107.997 54.5951,-107.997 55.8908,-112.826 50.2488,-109.163 57.1865,-117.655 57.1865,-117.655"/>
</g>
<!-- UserLocal -->
<g id="node11" class="node"><title>UserLocal</title>
<ellipse fill="none" stroke="black" cx="332.688" cy="-18" rx="46.8719" ry="18"/>
<text text-anchor="middle" x="332.688" y="-13.8" font-family="Times,serif" font-size="14.00">UserLocal</text>
</g>
<!-- Local&#45;&gt;UserLocal -->
<g id="edge9" class="edge"><title>Local&#45;&gt;UserLocal</title>
<path fill="none" stroke="#b31fc4" d="M282.771,-306.161C329.773,-274.017 423.815,-200.002 448.688,-108 452.863,-92.5545 457.337,-85.4608 448.688,-72 434.381,-49.7342 408.145,-36.7064 384.239,-29.144"/>
<ellipse fill="none" stroke="#b31fc4" cx="279.237" cy="-308.542" rx="4.00002" ry="4.00002"/>
<polygon fill="#b31fc4" stroke="#b31fc4" points="384.13,-29.1123 375.784,-21.9986 379.328,-27.7159 374.527,-26.3195 374.527,-26.3195 374.527,-26.3195 379.328,-27.7159 373.271,-30.6405 384.13,-29.1123 384.13,-29.1123"/>
</g>
<!-- Notification&#45;&gt;BeaconNotification -->
<g id="edge13" class="edge"><title>Notification&#45;&gt;BeaconNotification</title>
<path fill="none" stroke="#51c461" d="M351.122,-135.64C352.348,-129.92 353.653,-123.828 354.893,-118.042"/>
<ellipse fill="none" stroke="#51c461" cx="350.234" cy="-139.785" rx="4.00001" ry="4.00001"/>
<polygon fill="#51c461" stroke="#51c461" points="354.927,-117.882 361.423,-109.047 355.975,-112.993 357.023,-108.104 357.023,-108.104 357.023,-108.104 355.975,-112.993 352.622,-107.161 354.927,-117.882 354.927,-117.882"/>
</g>
<!-- Store&#45;&gt;Coupon -->
<g id="edge14" class="edge"><title>Store&#45;&gt;Coupon</title>
<path fill="none" stroke="#168eb6" d="M164.876,-207.64C164.478,-202.063 164.054,-196.132 163.65,-190.476"/>
<ellipse fill="none" stroke="#168eb6" cx="165.167" cy="-211.707" rx="4" ry="4"/>
<polygon fill="#168eb6" stroke="#168eb6" points="163.622,-190.079 167.398,-179.784 163.266,-185.092 162.909,-180.104 162.909,-180.104 162.909,-180.104 163.266,-185.092 158.421,-180.425 163.622,-190.079 163.622,-190.079"/>
</g>
<!-- User&#45;&gt;UserCoupon -->
<g id="edge16" class="edge"><title>User&#45;&gt;UserCoupon</title>
<path fill="none" stroke="#1e07b9" d="M60.0306,-64.7779C62.4351,-58.544 65.0345,-51.8046 67.4804,-45.4634"/>
<ellipse fill="none" stroke="#1e07b9" cx="58.5259" cy="-68.679" rx="4.00001" ry="4.00001"/>
<polygon fill="#1e07b9" stroke="#1e07b9" points="67.5487,-45.2862 75.346,-37.5757 69.3481,-40.6212 71.1475,-35.9562 71.1475,-35.9562 71.1475,-35.9562 69.3481,-40.6212 66.949,-34.3368 67.5487,-45.2862 67.5487,-45.2862"/>
</g>
<!-- User&#45;&gt;UserLocal -->
<g id="edge15" class="edge"><title>User&#45;&gt;UserLocal</title>
<path fill="none" stroke="#721ec7" d="M83.7079,-80.8035C133.303,-68.4926 227.298,-45.1605 284.538,-30.952"/>
<ellipse fill="none" stroke="#721ec7" cx="79.5955" cy="-81.8243" rx="4.00001" ry="4.00001"/>
<polygon fill="#721ec7" stroke="#721ec7" points="284.728,-30.9049 295.518,-32.8632 289.581,-29.7003 294.434,-28.4957 294.434,-28.4957 294.434,-28.4957 289.581,-29.7003 293.349,-24.1282 284.728,-30.9049 284.728,-30.9049"/>
</g>
</g>
</svg>
