<?xml version="1.0" encoding="UTF-8" standalone="no"?>
<!DOCTYPE svg PUBLIC "-//W3C//DTD SVG 1.1//EN"
 "http://www.w3.org/Graphics/SVG/1.1/DTD/svg11.dtd">
<!-- Generated by graphviz version 2.38.0 (20140413.2041)
 -->
<!-- Title: models_diagram Pages: 1 -->
<svg width="691pt" height="1119pt"
 viewBox="0.00 0.00 691.49 1119.00" xmlns="http://www.w3.org/2000/svg" xmlns:xlink="http://www.w3.org/1999/xlink">
<g id="graph0" class="graph" transform="scale(1 1) rotate(0) translate(4 1115)">
<title>models_diagram</title>
<polygon fill="white" stroke="none" points="-4,4 -4,-1115 687.486,-1115 687.486,4 -4,4"/>
<!-- _diagram_info -->
<g id="node1" class="node"><title>_diagram_info</title>
<text text-anchor="start" x="97.5901" y="-1061.6" font-family="Times,serif" font-size="13.00">Models diagram</text>
<text text-anchor="start" x="97.5901" y="-1048.6" font-family="Times,serif" font-size="13.00">Date: Dec 09 2014 &#45; 01:26</text>
<text text-anchor="start" x="97.5901" y="-1035.6" font-family="Times,serif" font-size="13.00">Migration version: 20141209061841</text>
<text text-anchor="start" x="97.5901" y="-1022.6" font-family="Times,serif" font-size="13.00">Generated by RailRoady 1.2.0</text>
<text text-anchor="start" x="97.5901" y="-1009.6" font-family="Times,serif" font-size="13.00">http://railroady.prestonlee.com</text>
</g>
<!-- Beacon -->
<g id="node2" class="node"><title>Beacon</title>
<path fill="none" stroke="black" d="M322.083,-789.5C322.083,-789.5 440.473,-789.5 440.473,-789.5 446.473,-789.5 452.473,-795.5 452.473,-801.5 452.473,-801.5 452.473,-919.5 452.473,-919.5 452.473,-925.5 446.473,-931.5 440.473,-931.5 440.473,-931.5 322.083,-931.5 322.083,-931.5 316.083,-931.5 310.083,-925.5 310.083,-919.5 310.083,-919.5 310.083,-801.5 310.083,-801.5 310.083,-795.5 316.083,-789.5 322.083,-789.5"/>
<text text-anchor="middle" x="381.278" y="-916.3" font-family="Times,serif" font-size="14.00">Beacon</text>
<polyline fill="none" stroke="black" points="310.083,-909.5 452.473,-909.5 "/>
<text text-anchor="start" x="318.083" y="-894.3" font-family="Times,serif" font-size="14.00">id :integer</text>
<text text-anchor="start" x="318.083" y="-880.3" font-family="Times,serif" font-size="14.00">major :integer</text>
<text text-anchor="start" x="318.083" y="-866.3" font-family="Times,serif" font-size="14.00">minor :integer</text>
<text text-anchor="start" x="318.083" y="-852.3" font-family="Times,serif" font-size="14.00">proximity_uuid :string</text>
<text text-anchor="start" x="318.083" y="-838.3" font-family="Times,serif" font-size="14.00">description :string</text>
<text text-anchor="start" x="318.083" y="-824.3" font-family="Times,serif" font-size="14.00">local_id :integer</text>
<text text-anchor="start" x="318.083" y="-810.3" font-family="Times,serif" font-size="14.00">created_at :datetime</text>
<text text-anchor="start" x="318.083" y="-796.3" font-family="Times,serif" font-size="14.00">updated_at :datetime</text>
</g>
<!-- BeaconCoupon -->
<g id="node3" class="node"><title>BeaconCoupon</title>
<path fill="none" stroke="black" d="M281.597,-256.5C281.597,-256.5 378.959,-256.5 378.959,-256.5 384.959,-256.5 390.959,-262.5 390.959,-268.5 390.959,-268.5 390.959,-316.5 390.959,-316.5 390.959,-322.5 384.959,-328.5 378.959,-328.5 378.959,-328.5 281.597,-328.5 281.597,-328.5 275.597,-328.5 269.597,-322.5 269.597,-316.5 269.597,-316.5 269.597,-268.5 269.597,-268.5 269.597,-262.5 275.597,-256.5 281.597,-256.5"/>
<text text-anchor="middle" x="330.278" y="-313.3" font-family="Times,serif" font-size="14.00">BeaconCoupon</text>
<polyline fill="none" stroke="black" points="269.597,-306.5 390.959,-306.5 "/>
<text text-anchor="start" x="277.597" y="-291.3" font-family="Times,serif" font-size="14.00">id :integer</text>
<text text-anchor="start" x="277.597" y="-277.3" font-family="Times,serif" font-size="14.00">beacon_id :integer</text>
<text text-anchor="start" x="277.597" y="-263.3" font-family="Times,serif" font-size="14.00">coupon_id :integer</text>
</g>
<!-- Beacon&#45;&gt;BeaconCoupon -->
<g id="edge1" class="edge"><title>Beacon&#45;&gt;BeaconCoupon</title>
<path fill="none" stroke="#2375ad" d="M374.223,-781.204C363.388,-660.957 342.997,-434.661 334.336,-338.532"/>
<ellipse fill="none" stroke="#2375ad" cx="374.588" cy="-785.261" rx="4" ry="4"/>
<polygon fill="#2375ad" stroke="#2375ad" points="334.334,-338.514 337.918,-328.15 333.885,-333.534 333.436,-328.554 333.436,-328.554 333.436,-328.554 333.885,-333.534 328.955,-328.958 334.334,-338.514 334.334,-338.514"/>
</g>
<!-- BeaconNotification -->
<g id="node4" class="node"><title>BeaconNotification</title>
<path fill="none" stroke="black" d="M438.317,-256.5C438.317,-256.5 558.238,-256.5 558.238,-256.5 564.238,-256.5 570.238,-262.5 570.238,-268.5 570.238,-268.5 570.238,-316.5 570.238,-316.5 570.238,-322.5 564.238,-328.5 558.238,-328.5 558.238,-328.5 438.317,-328.5 438.317,-328.5 432.317,-328.5 426.317,-322.5 426.317,-316.5 426.317,-316.5 426.317,-268.5 426.317,-268.5 426.317,-262.5 432.317,-256.5 438.317,-256.5"/>
<text text-anchor="middle" x="498.278" y="-313.3" font-family="Times,serif" font-size="14.00">BeaconNotification</text>
<polyline fill="none" stroke="black" points="426.317,-306.5 570.238,-306.5 "/>
<text text-anchor="start" x="434.317" y="-291.3" font-family="Times,serif" font-size="14.00">id :integer</text>
<text text-anchor="start" x="434.317" y="-277.3" font-family="Times,serif" font-size="14.00">beacon_id :integer</text>
<text text-anchor="start" x="434.317" y="-263.3" font-family="Times,serif" font-size="14.00">notification_id :integer</text>
</g>
<!-- Beacon&#45;&gt;BeaconNotification -->
<g id="edge3" class="edge"><title>Beacon&#45;&gt;BeaconNotification</title>
<path fill="none" stroke="#24221f" d="M377.53,-781.104C375.88,-704.142 378.765,-584.07 405.278,-484 419.37,-430.809 448.724,-374.769 470.706,-337.352"/>
<ellipse fill="none" stroke="#24221f" cx="377.632" cy="-785.343" rx="4" ry="4"/>
<polygon fill="#24221f" stroke="#24221f" points="470.726,-337.318 479.706,-331.024 473.283,-333.02 475.839,-328.723 475.839,-328.723 475.839,-328.723 473.283,-333.02 471.971,-326.423 470.726,-337.318 470.726,-337.318"/>
</g>
<!-- Coupon -->
<g id="node5" class="node"><title>Coupon</title>
<path fill="none" stroke="black" d="M132.334,-484.5C132.334,-484.5 308.221,-484.5 308.221,-484.5 314.221,-484.5 320.221,-490.5 320.221,-496.5 320.221,-496.5 320.221,-740.5 320.221,-740.5 320.221,-746.5 314.221,-752.5 308.221,-752.5 308.221,-752.5 132.334,-752.5 132.334,-752.5 126.334,-752.5 120.334,-746.5 120.334,-740.5 120.334,-740.5 120.334,-496.5 120.334,-496.5 120.334,-490.5 126.334,-484.5 132.334,-484.5"/>
<text text-anchor="middle" x="220.278" y="-737.3" font-family="Times,serif" font-size="14.00">Coupon</text>
<polyline fill="none" stroke="black" points="120.334,-730.5 320.221,-730.5 "/>
<text text-anchor="start" x="128.334" y="-715.3" font-family="Times,serif" font-size="14.00">id :integer</text>
<text text-anchor="start" x="128.334" y="-701.3" font-family="Times,serif" font-size="14.00">title :string</text>
<text text-anchor="start" x="128.334" y="-687.3" font-family="Times,serif" font-size="14.00">message :text</text>
<text text-anchor="start" x="128.334" y="-673.3" font-family="Times,serif" font-size="14.00">init_date :datetime</text>
<text text-anchor="start" x="128.334" y="-659.3" font-family="Times,serif" font-size="14.00">end_date :datetime</text>
<text text-anchor="start" x="128.334" y="-645.3" font-family="Times,serif" font-size="14.00">access_level :string</text>
<text text-anchor="start" x="128.334" y="-631.3" font-family="Times,serif" font-size="14.00">legal :text</text>
<text text-anchor="start" x="128.334" y="-617.3" font-family="Times,serif" font-size="14.00">proximity_trigger_range :integer</text>
<text text-anchor="start" x="128.334" y="-603.3" font-family="Times,serif" font-size="14.00">code :string</text>
<text text-anchor="start" x="128.334" y="-589.3" font-family="Times,serif" font-size="14.00">store_id :integer</text>
<text text-anchor="start" x="128.334" y="-575.3" font-family="Times,serif" font-size="14.00">created_at :datetime</text>
<text text-anchor="start" x="128.334" y="-561.3" font-family="Times,serif" font-size="14.00">updated_at :datetime</text>
<text text-anchor="start" x="128.334" y="-547.3" font-family="Times,serif" font-size="14.00">image_file_name :string</text>
<text text-anchor="start" x="128.334" y="-533.3" font-family="Times,serif" font-size="14.00">image_content_type :string</text>
<text text-anchor="start" x="128.334" y="-519.3" font-family="Times,serif" font-size="14.00">image_file_size :integer</text>
<text text-anchor="start" x="128.334" y="-505.3" font-family="Times,serif" font-size="14.00">image_updated_at :datetime</text>
<text text-anchor="start" x="128.334" y="-491.3" font-family="Times,serif" font-size="14.00">stock :integer</text>
</g>
<!-- Beacon&#45;&gt;Coupon -->
<g id="edge2" class="edge"><title>Beacon&#45;&gt;Coupon</title>
<path fill="none" stroke="#e3e892" d="M328.528,-780.867C324.254,-774.495 319.861,-767.947 315.406,-761.306"/>
<polygon fill="#e3e892" stroke="#e3e892" points="328.706,-781.132 330.54,-791.944 331.492,-785.285 334.277,-789.437 334.277,-789.437 334.277,-789.437 331.492,-785.285 338.014,-786.93 328.706,-781.132 328.706,-781.132"/>
<polygon fill="#e3e892" stroke="#e3e892" points="315.305,-761.156 313.471,-750.344 312.52,-757.003 309.734,-752.851 309.734,-752.851 309.734,-752.851 312.52,-757.003 305.997,-755.358 315.305,-761.156 315.305,-761.156"/>
</g>
<!-- Notification -->
<g id="node7" class="node"><title>Notification</title>
<path fill="none" stroke="black" d="M426.334,-533.5C426.334,-533.5 602.221,-533.5 602.221,-533.5 608.221,-533.5 614.221,-539.5 614.221,-545.5 614.221,-545.5 614.221,-691.5 614.221,-691.5 614.221,-697.5 608.221,-703.5 602.221,-703.5 602.221,-703.5 426.334,-703.5 426.334,-703.5 420.334,-703.5 414.334,-697.5 414.334,-691.5 414.334,-691.5 414.334,-545.5 414.334,-545.5 414.334,-539.5 420.334,-533.5 426.334,-533.5"/>
<text text-anchor="middle" x="514.278" y="-688.3" font-family="Times,serif" font-size="14.00">Notification</text>
<polyline fill="none" stroke="black" points="414.334,-681.5 614.221,-681.5 "/>
<text text-anchor="start" x="422.334" y="-666.3" font-family="Times,serif" font-size="14.00">id :integer</text>
<text text-anchor="start" x="422.334" y="-652.3" font-family="Times,serif" font-size="14.00">title :string</text>
<text text-anchor="start" x="422.334" y="-638.3" font-family="Times,serif" font-size="14.00">message :text</text>
<text text-anchor="start" x="422.334" y="-624.3" font-family="Times,serif" font-size="14.00">init_date :datetime</text>
<text text-anchor="start" x="422.334" y="-610.3" font-family="Times,serif" font-size="14.00">end_date :datetime</text>
<text text-anchor="start" x="422.334" y="-596.3" font-family="Times,serif" font-size="14.00">proximity_trigger_range :integer</text>
<text text-anchor="start" x="422.334" y="-582.3" font-family="Times,serif" font-size="14.00">created_at :datetime</text>
<text text-anchor="start" x="422.334" y="-568.3" font-family="Times,serif" font-size="14.00">updated_at :datetime</text>
<text text-anchor="start" x="422.334" y="-554.3" font-family="Times,serif" font-size="14.00">local_id :integer</text>
<text text-anchor="start" x="422.334" y="-540.3" font-family="Times,serif" font-size="14.00">access_level :string</text>
</g>
<!-- Beacon&#45;&gt;Notification -->
<g id="edge4" class="edge"><title>Beacon&#45;&gt;Notification</title>
<path fill="none" stroke="#16448b" d="M425.061,-780.493C437.107,-758.756 450.283,-734.98 462.723,-712.531"/>
<polygon fill="#16448b" stroke="#16448b" points="424.952,-780.69 416.168,-787.256 422.528,-785.064 420.104,-789.437 420.104,-789.437 420.104,-789.437 422.528,-785.064 424.041,-791.618 424.952,-780.69 424.952,-780.69"/>
<polygon fill="#16448b" stroke="#16448b" points="462.787,-712.416 471.57,-705.851 465.21,-708.043 467.634,-703.67 467.634,-703.67 467.634,-703.67 465.21,-708.043 463.698,-701.488 462.787,-712.416 462.787,-712.416"/>
</g>
<!-- Coupon&#45;&gt;BeaconCoupon -->
<g id="edge6" class="edge"><title>Coupon&#45;&gt;BeaconCoupon</title>
<path fill="none" stroke="#c24c3f" d="M268.1,-476.643C285.025,-426.791 302.872,-374.222 315.083,-338.256"/>
<ellipse fill="none" stroke="#c24c3f" cx="266.781" cy="-480.527" rx="4.00001" ry="4.00001"/>
<polygon fill="#c24c3f" stroke="#c24c3f" points="315.157,-338.037 322.633,-330.014 316.765,-333.302 318.372,-328.568 318.372,-328.568 318.372,-328.568 316.765,-333.302 314.111,-327.121 315.157,-338.037 315.157,-338.037"/>
</g>
<!-- User -->
<g id="node9" class="node"><title>User</title>
<path fill="none" stroke="black" d="M12,-137.5C12,-137.5 192.556,-137.5 192.556,-137.5 198.556,-137.5 204.556,-143.5 204.556,-149.5 204.556,-149.5 204.556,-435.5 204.556,-435.5 204.556,-441.5 198.556,-447.5 192.556,-447.5 192.556,-447.5 12,-447.5 12,-447.5 6,-447.5 0,-441.5 0,-435.5 0,-435.5 0,-149.5 0,-149.5 0,-143.5 6,-137.5 12,-137.5"/>
<text text-anchor="middle" x="102.278" y="-432.3" font-family="Times,serif" font-size="14.00">User</text>
<polyline fill="none" stroke="black" points="0,-425.5 204.556,-425.5 "/>
<text text-anchor="start" x="8" y="-410.3" font-family="Times,serif" font-size="14.00">id :integer</text>
<text text-anchor="start" x="8" y="-396.3" font-family="Times,serif" font-size="14.00">email :string</text>
<text text-anchor="start" x="8" y="-382.3" font-family="Times,serif" font-size="14.00">encrypted_password :string</text>
<text text-anchor="start" x="8" y="-368.3" font-family="Times,serif" font-size="14.00">reset_password_token :string</text>
<text text-anchor="start" x="8" y="-354.3" font-family="Times,serif" font-size="14.00">reset_password_sent_at :datetime</text>
<text text-anchor="start" x="8" y="-340.3" font-family="Times,serif" font-size="14.00">remember_created_at :datetime</text>
<text text-anchor="start" x="8" y="-326.3" font-family="Times,serif" font-size="14.00">sign_in_count :integer</text>
<text text-anchor="start" x="8" y="-312.3" font-family="Times,serif" font-size="14.00">current_sign_in_at :datetime</text>
<text text-anchor="start" x="8" y="-298.3" font-family="Times,serif" font-size="14.00">last_sign_in_at :datetime</text>
<text text-anchor="start" x="8" y="-284.3" font-family="Times,serif" font-size="14.00">current_sign_in_ip :string</text>
<text text-anchor="start" x="8" y="-270.3" font-family="Times,serif" font-size="14.00">last_sign_in_ip :string</text>
<text text-anchor="start" x="8" y="-256.3" font-family="Times,serif" font-size="14.00">created_at :datetime</text>
<text text-anchor="start" x="8" y="-242.3" font-family="Times,serif" font-size="14.00">updated_at :datetime</text>
<text text-anchor="start" x="8" y="-228.3" font-family="Times,serif" font-size="14.00">name :string</text>
<text text-anchor="start" x="8" y="-214.3" font-family="Times,serif" font-size="14.00">last_name :string</text>
<text text-anchor="start" x="8" y="-200.3" font-family="Times,serif" font-size="14.00">rut :string</text>
<text text-anchor="start" x="8" y="-186.3" font-family="Times,serif" font-size="14.00">address :string</text>
<text text-anchor="start" x="8" y="-172.3" font-family="Times,serif" font-size="14.00">gender :string</text>
<text text-anchor="start" x="8" y="-158.3" font-family="Times,serif" font-size="14.00">authentication_token :string</text>
<text text-anchor="start" x="8" y="-144.3" font-family="Times,serif" font-size="14.00">user_type :string</text>
</g>
<!-- Coupon&#45;&gt;User -->
<g id="edge7" class="edge"><title>Coupon&#45;&gt;User</title>
<path fill="none" stroke="#663e4b" d="M168.341,-474.893C166.172,-468.938 163.99,-462.947 161.807,-456.954"/>
<polygon fill="#663e4b" stroke="#663e4b" points="168.35,-474.918 167.544,-485.854 170.061,-479.616 171.772,-484.314 171.772,-484.314 171.772,-484.314 170.061,-479.616 176,-482.774 168.35,-474.918 168.35,-474.918"/>
<polygon fill="#663e4b" stroke="#663e4b" points="161.801,-456.935 162.607,-445.999 160.089,-452.237 158.378,-447.539 158.378,-447.539 158.378,-447.539 160.089,-452.237 154.15,-449.079 161.801,-456.935 161.801,-456.935"/>
</g>
<!-- UserCoupon -->
<g id="node10" class="node"><title>UserCoupon</title>
<path fill="none" stroke="black" d="M118.597,-14.5C118.597,-14.5 215.959,-14.5 215.959,-14.5 221.959,-14.5 227.959,-20.5 227.959,-26.5 227.959,-26.5 227.959,-74.5 227.959,-74.5 227.959,-80.5 221.959,-86.5 215.959,-86.5 215.959,-86.5 118.597,-86.5 118.597,-86.5 112.597,-86.5 106.597,-80.5 106.597,-74.5 106.597,-74.5 106.597,-26.5 106.597,-26.5 106.597,-20.5 112.597,-14.5 118.597,-14.5"/>
<text text-anchor="middle" x="167.278" y="-71.3" font-family="Times,serif" font-size="14.00">UserCoupon</text>
<polyline fill="none" stroke="black" points="106.597,-64.5 227.959,-64.5 "/>
<text text-anchor="start" x="114.597" y="-49.3" font-family="Times,serif" font-size="14.00">id :integer</text>
<text text-anchor="start" x="114.597" y="-35.3" font-family="Times,serif" font-size="14.00">user_id :integer</text>
<text text-anchor="start" x="114.597" y="-21.3" font-family="Times,serif" font-size="14.00">coupon_id :integer</text>
</g>
<!-- Coupon&#45;&gt;UserCoupon -->
<g id="edge5" class="edge"><title>Coupon&#45;&gt;UserCoupon</title>
<path fill="none" stroke="#262023" d="M235.633,-476.366C241.99,-379.349 242.216,-248.432 213.278,-137 209.596,-122.822 203.112,-108.416 196.154,-95.5721"/>
<ellipse fill="none" stroke="#262023" cx="235.354" cy="-480.476" rx="4" ry="4"/>
<polygon fill="#262023" stroke="#262023" points="195.958,-95.2259 194.954,-84.3061 193.497,-90.8734 191.037,-86.521 191.037,-86.521 191.037,-86.521 193.497,-90.8734 187.119,-88.7358 195.958,-95.2259 195.958,-95.2259"/>
</g>
<!-- Local -->
<g id="node6" class="node"><title>Local</title>
<path fill="none" stroke="black" d="M326.772,-968.5C326.772,-968.5 435.783,-968.5 435.783,-968.5 441.783,-968.5 447.783,-974.5 447.783,-980.5 447.783,-980.5 447.783,-1098.5 447.783,-1098.5 447.783,-1104.5 441.783,-1110.5 435.783,-1110.5 435.783,-1110.5 326.772,-1110.5 326.772,-1110.5 320.772,-1110.5 314.772,-1104.5 314.772,-1098.5 314.772,-1098.5 314.772,-980.5 314.772,-980.5 314.772,-974.5 320.772,-968.5 326.772,-968.5"/>
<text text-anchor="middle" x="381.278" y="-1095.3" font-family="Times,serif" font-size="14.00">Local</text>
<polyline fill="none" stroke="black" points="314.772,-1088.5 447.783,-1088.5 "/>
<text text-anchor="start" x="322.772" y="-1073.3" font-family="Times,serif" font-size="14.00">id :integer</text>
<text text-anchor="start" x="322.772" y="-1059.3" font-family="Times,serif" font-size="14.00">name :string</text>
<text text-anchor="start" x="322.772" y="-1045.3" font-family="Times,serif" font-size="14.00">latitude :float</text>
<text text-anchor="start" x="322.772" y="-1031.3" font-family="Times,serif" font-size="14.00">longitude :float</text>
<text text-anchor="start" x="322.772" y="-1017.3" font-family="Times,serif" font-size="14.00">radius :integer</text>
<text text-anchor="start" x="322.772" y="-1003.3" font-family="Times,serif" font-size="14.00">address :string</text>
<text text-anchor="start" x="322.772" y="-989.3" font-family="Times,serif" font-size="14.00">created_at :datetime</text>
<text text-anchor="start" x="322.772" y="-975.3" font-family="Times,serif" font-size="14.00">updated_at :datetime</text>
</g>
<!-- Local&#45;&gt;Beacon -->
<g id="edge10" class="edge"><title>Local&#45;&gt;Beacon</title>
<path fill="none" stroke="#d89c24" d="M381.278,-960.028C381.278,-953.968 381.278,-947.845 381.278,-941.773"/>
<ellipse fill="none" stroke="#d89c24" cx="381.278" cy="-964.291" rx="4" ry="4"/>
<polygon fill="#d89c24" stroke="#d89c24" points="381.278,-941.624 385.778,-931.624 381.278,-936.624 381.278,-931.624 381.278,-931.624 381.278,-931.624 381.278,-936.624 376.778,-931.624 381.278,-941.624 381.278,-941.624"/>
</g>
<!-- Local&#45;&gt;Notification -->
<g id="edge12" class="edge"><title>Local&#45;&gt;Notification</title>
<path fill="none" stroke="#883bb3" d="M445.564,-961.461C451.553,-951.924 456.977,-942 461.278,-932 491.147,-862.542 504.221,-777.622 509.924,-713.846"/>
<ellipse fill="none" stroke="#883bb3" cx="443.287" cy="-964.976" rx="4.00002" ry="4.00002"/>
<polygon fill="#883bb3" stroke="#883bb3" points="509.931,-713.762 515.262,-704.179 510.355,-708.78 510.778,-703.798 510.778,-703.798 510.778,-703.798 510.355,-708.78 506.294,-703.417 509.931,-713.762 509.931,-713.762"/>
</g>
<!-- Store -->
<g id="node8" class="node"><title>Store</title>
<path fill="none" stroke="black" d="M167.772,-810.5C167.772,-810.5 276.783,-810.5 276.783,-810.5 282.783,-810.5 288.783,-816.5 288.783,-822.5 288.783,-822.5 288.783,-898.5 288.783,-898.5 288.783,-904.5 282.783,-910.5 276.783,-910.5 276.783,-910.5 167.772,-910.5 167.772,-910.5 161.772,-910.5 155.772,-904.5 155.772,-898.5 155.772,-898.5 155.772,-822.5 155.772,-822.5 155.772,-816.5 161.772,-810.5 167.772,-810.5"/>
<text text-anchor="middle" x="222.278" y="-895.3" font-family="Times,serif" font-size="14.00">Store</text>
<polyline fill="none" stroke="black" points="155.772,-888.5 288.783,-888.5 "/>
<text text-anchor="start" x="163.772" y="-873.3" font-family="Times,serif" font-size="14.00">id :integer</text>
<text text-anchor="start" x="163.772" y="-859.3" font-family="Times,serif" font-size="14.00">name :string</text>
<text text-anchor="start" x="163.772" y="-845.3" font-family="Times,serif" font-size="14.00">local_id :integer</text>
<text text-anchor="start" x="163.772" y="-831.3" font-family="Times,serif" font-size="14.00">created_at :datetime</text>
<text text-anchor="start" x="163.772" y="-817.3" font-family="Times,serif" font-size="14.00">updated_at :datetime</text>
</g>
<!-- Local&#45;&gt;Store -->
<g id="edge11" class="edge"><title>Local&#45;&gt;Store</title>
<path fill="none" stroke="#059af0" d="M312.484,-961.918C299.305,-947.248 285.727,-932.132 273.233,-918.224"/>
<ellipse fill="none" stroke="#059af0" cx="315.535" cy="-965.315" rx="4.00002" ry="4.00002"/>
<polygon fill="#059af0" stroke="#059af0" points="273.096,-918.071 269.761,-907.625 269.754,-914.351 266.413,-910.632 266.413,-910.632 266.413,-910.632 269.754,-914.351 263.065,-913.639 273.096,-918.071 273.096,-918.071"/>
</g>
<!-- Local&#45;&gt;User -->
<g id="edge8" class="edge"><title>Local&#45;&gt;User</title>
<path fill="none" stroke="#a6ca42" d="M305.472,-968.35C238.032,-937.976 194.903,-982.017 146.278,-932 26.7458,-809.046 35.3422,-602.29 61.0242,-457.456"/>
<polygon fill="#a6ca42" stroke="#a6ca42" points="305.738,-968.481 312.714,-976.942 310.222,-970.694 314.706,-972.906 314.706,-972.906 314.706,-972.906 310.222,-970.694 316.697,-968.871 305.738,-968.481 305.738,-968.481"/>
<polygon fill="#a6ca42" stroke="#a6ca42" points="61.0323,-457.412 67.2477,-448.377 61.9263,-452.492 62.8202,-447.573 62.8202,-447.573 62.8202,-447.573 61.9263,-452.492 58.3927,-446.768 61.0323,-457.412 61.0323,-457.412"/>
</g>
<!-- UserLocal -->
<g id="node11" class="node"><title>UserLocal</title>
<path fill="none" stroke="black" d="M422.772,-0.5C422.772,-0.5 531.783,-0.5 531.783,-0.5 537.783,-0.5 543.783,-6.5 543.783,-12.5 543.783,-12.5 543.783,-88.5 543.783,-88.5 543.783,-94.5 537.783,-100.5 531.783,-100.5 531.783,-100.5 422.772,-100.5 422.772,-100.5 416.772,-100.5 410.772,-94.5 410.772,-88.5 410.772,-88.5 410.772,-12.5 410.772,-12.5 410.772,-6.5 416.772,-0.5 422.772,-0.5"/>
<text text-anchor="middle" x="477.278" y="-85.3" font-family="Times,serif" font-size="14.00">UserLocal</text>
<polyline fill="none" stroke="black" points="410.772,-78.5 543.783,-78.5 "/>
<text text-anchor="start" x="418.772" y="-63.3" font-family="Times,serif" font-size="14.00">id :integer</text>
<text text-anchor="start" x="418.772" y="-49.3" font-family="Times,serif" font-size="14.00">user_id :integer</text>
<text text-anchor="start" x="418.772" y="-35.3" font-family="Times,serif" font-size="14.00">local_id :integer</text>
<text text-anchor="start" x="418.772" y="-21.3" font-family="Times,serif" font-size="14.00">created_at :datetime</text>
<text text-anchor="start" x="418.772" y="-7.3" font-family="Times,serif" font-size="14.00">updated_at :datetime</text>
</g>
<!-- Local&#45;&gt;UserLocal -->
<g id="edge9" class="edge"><title>Local&#45;&gt;UserLocal</title>
<path fill="none" stroke="#34a2a1" d="M453.875,-981.745C513.536,-929.783 592.982,-846.857 623.278,-753 707.592,-491.796 710.784,-377.921 579.278,-137 572.217,-124.064 562.343,-112.266 551.495,-101.843"/>
<ellipse fill="none" stroke="#34a2a1" cx="450.829" cy="-984.375" rx="4.00002" ry="4.00002"/>
<polygon fill="#34a2a1" stroke="#34a2a1" points="551.23,-101.601 546.891,-91.5299 547.542,-98.2252 543.853,-94.8497 543.853,-94.8497 543.853,-94.8497 547.542,-98.2252 540.815,-98.1695 551.23,-101.601 551.23,-101.601"/>
</g>
<!-- Notification&#45;&gt;BeaconNotification -->
<g id="edge13" class="edge"><title>Notification&#45;&gt;BeaconNotification</title>
<path fill="none" stroke="#9bce2f" d="M509.706,-524.917C506.691,-463.863 502.875,-386.586 500.505,-338.595"/>
<ellipse fill="none" stroke="#9bce2f" cx="509.918" cy="-529.223" rx="4" ry="4"/>
<polygon fill="#9bce2f" stroke="#9bce2f" points="500.501,-338.509 504.502,-328.299 500.254,-333.515 500.007,-328.521 500.007,-328.521 500.007,-328.521 500.254,-333.515 495.513,-328.743 500.501,-338.509 500.501,-338.509"/>
</g>
<!-- Store&#45;&gt;Coupon -->
<g id="edge14" class="edge"><title>Store&#45;&gt;Coupon</title>
<path fill="none" stroke="#23f762" d="M221.8,-802.175C221.699,-790.042 221.588,-776.72 221.473,-762.971"/>
<ellipse fill="none" stroke="#23f762" cx="221.835" cy="-806.353" rx="4" ry="4"/>
<polygon fill="#23f762" stroke="#23f762" points="221.473,-762.895 225.889,-752.857 221.431,-757.895 221.389,-752.895 221.389,-752.895 221.389,-752.895 221.431,-757.895 216.89,-752.932 221.473,-762.895 221.473,-762.895"/>
</g>
<!-- User&#45;&gt;UserCoupon -->
<g id="edge16" class="edge"><title>User&#45;&gt;UserCoupon</title>
<path fill="none" stroke="#a7bd2f" d="M146.122,-129.612C149.338,-117.739 152.385,-106.491 155.112,-96.4215"/>
<ellipse fill="none" stroke="#a7bd2f" cx="145.041" cy="-133.607" rx="4.00001" ry="4.00001"/>
<polygon fill="#a7bd2f" stroke="#a7bd2f" points="155.112,-96.418 162.07,-87.9422 156.42,-91.5919 157.727,-86.7657 157.727,-86.7657 157.727,-86.7657 156.42,-91.5919 153.383,-85.5893 155.112,-96.418 155.112,-96.418"/>
</g>
<!-- User&#45;&gt;UserLocal -->
<g id="edge15" class="edge"><title>User&#45;&gt;UserLocal</title>
<path fill="none" stroke="#3ed736" d="M210.996,-174.607C226.738,-160.92 243.364,-147.956 260.278,-137 303.565,-108.962 357.494,-87.6596 400.76,-73.3304"/>
<ellipse fill="none" stroke="#3ed736" cx="207.775" cy="-177.448" rx="4.00002" ry="4.00002"/>
<polygon fill="#3ed736" stroke="#3ed736" points="400.876,-73.293 411.777,-74.4782 405.63,-71.746 410.385,-70.199 410.385,-70.199 410.385,-70.199 405.63,-71.746 408.993,-65.9198 400.876,-73.293 400.876,-73.293"/>
</g>
</g>
</svg>
